<?xml version="1.0" encoding="UTF-8"?>
<svg version="1.1" xmlns="http://www.w3.org/2000/svg" width="175" height="234">
<path d="M0 0 C16.5 0 33 0 50 0 C51.56445168 3.12890337 51.11168661 6.45435228 51.08178711 9.88696289 C51.07872055 10.70185181 51.07565399 11.51674072 51.07249451 12.35632324 C51.06532925 14.13023413 51.055934 15.90413706 51.04459953 17.6780262 C51.02723125 20.49087677 51.01691563 23.30367065 51.00868225 26.11656189 C50.98421929 34.11609271 50.94884806 42.11554784 50.90405273 50.11499023 C50.87716004 55.00615875 50.86018616 59.89728247 50.84918404 64.78851128 C50.84300023 66.64832645 50.83302775 68.50813323 50.81910515 70.36790657 C50.79973131 72.98108597 50.79297045 75.59403345 50.78881836 78.20727539 C50.78005676 78.96658859 50.77129517 79.72590179 50.76226807 80.50822449 C50.78045544 90.61436671 53.16917068 99.51793212 59.94140625 107.203125 C66.88139159 113.90722532 74.35472789 117.10071319 84 117.5 C93.07744139 117.13596289 100.99179569 113.98984683 107.98828125 108.19921875 C114.98251673 100.55309336 117.41238089 91.28766471 117.265625 81.22265625 C116.42260573 70.99484892 111.57281177 63.72165276 104 57 C95.15855256 50.87899792 84.88697694 50.64991873 74.5 50.375 C70.375 50.25125 66.25 50.1275 62 50 C62 33.5 62 17 62 0 C67.424375 -0.0825 72.84875 -0.165 78.4375 -0.25 C80.10997803 -0.28641602 81.78245605 -0.32283203 83.50561523 -0.36035156 C97.21821533 -0.53454769 110.87513918 1.25417055 122.9375 8.25 C123.64076416 8.64131104 124.34402832 9.03262207 125.06860352 9.43579102 C130.8652795 12.74254788 136.07978871 16.4798751 141 21 C142.24136719 22.10408203 142.24136719 22.10408203 143.5078125 23.23046875 C159.3755653 38.10345417 168.01633023 58.42121275 169.28125 80.00390625 C169.85505776 104.46246205 161.33017722 126.88719693 144.421875 144.69921875 C129.43323107 158.93843049 109.80702299 168.21418468 89 169 C88.14277344 169.03996094 87.28554687 169.07992187 86.40234375 169.12109375 C61.97102014 169.71869447 40.28920268 159.76469585 22.8125 143.125 C16.57959273 136.6547676 11.98620346 129.34884835 7.8125 121.4375 C7.49152344 120.85613281 7.17054687 120.27476562 6.83984375 119.67578125 C-0.51926676 105.14001752 -0.55690732 89.2184793 -0.390625 73.33984375 C-0.3831444 71.21180255 -0.3774601 69.08375435 -0.37347412 66.95570374 C-0.35836082 61.41385136 -0.31920598 55.87243298 -0.2746582 50.33074951 C-0.22611005 43.64997066 -0.20810325 36.96904491 -0.18484497 30.28813934 C-0.1463435 20.19179308 -0.06959032 10.09639494 0 0 Z " fill="#373737" transform="translate(4,65)"/>
<path d="M0 0 C4.929375 -0.0825 9.85875 -0.165 14.9375 -0.25 C16.47398193 -0.28641602 18.01046387 -0.32283203 19.59350586 -0.36035156 C28.57550221 -0.43293335 35.47235025 0.1981567 42.55859375 6.1484375 C43.48865234 7.25058594 43.48865234 7.25058594 44.4375 8.375 C45.39462891 9.46941406 45.39462891 9.46941406 46.37109375 10.5859375 C49.77142595 15.62527874 50.24471562 20.38941022 50.1953125 26.3671875 C50.19031738 27.61097168 50.18532227 28.85475586 50.18017578 30.13623047 C50.16196777 31.70002441 50.14375977 33.26381836 50.125 34.875 C50.08375 39.86625 50.0425 44.8575 50 50 C33.5 50 17 50 0 50 C0 33.5 0 17 0 0 Z " fill="#F76B0A" transform="translate(4,3)"/>
<path d="M0 0 C4.929375 -0.0825 9.85875 -0.165 14.9375 -0.25 C16.47398193 -0.28641602 18.01046387 -0.32283203 19.59350586 -0.36035156 C28.57550221 -0.43293335 35.47235025 0.1981567 42.55859375 6.1484375 C43.48865234 7.25058594 43.48865234 7.25058594 44.4375 8.375 C45.39462891 9.46941406 45.39462891 9.46941406 46.37109375 10.5859375 C49.77142595 15.62527874 50.24471562 20.38941022 50.1953125 26.3671875 C50.19031738 27.61097168 50.18532227 28.85475586 50.18017578 30.13623047 C50.16196777 31.70002441 50.14375977 33.26381836 50.125 34.875 C50.08375 39.86625 50.0425 44.8575 50 50 C33.5 50 17 50 0 50 C0 33.5 0 17 0 0 Z M3 2 C3.33 3.32 3.66 4.64 4 6 C5.65 6.33 7.3 6.66 9 7 C9 8.65 9 10.3 9 12 C8.67 11.34 8.34 10.68 8 10 C6.68 10.33 5.36 10.66 4 11 C4 11.66 4 12.32 4 13 C4.66 13 5.32 13 6 13 C6 24.55 6 36.1 6 48 C11.66004381 48.02292547 17.31992726 48.04284784 22.97998047 48.05493164 C24.90641831 48.05996787 26.83285231 48.06679712 28.75927734 48.07543945 C31.52442368 48.08753608 34.28951958 48.09323533 37.0546875 48.09765625 C37.9193161 48.10281754 38.7839447 48.10797882 39.67477417 48.11329651 C43.97251002 48.24383889 43.97251002 48.24383889 48 47 C48 37.76 48 28.52 48 19 C47.34 18.67 46.68 18.34 46 18 C45.34 19.65 44.68 21.3 44 23 C43.93003853 20.48138718 43.89046659 18.36146024 44.625 15.9375 C45.12188971 13.3702365 44.32679428 12.18530823 43 10 C42.34 10 41.68 10 41 10 C41 8.68 41 7.36 41 6 C32.79340165 1.75182216 25.48835788 1.505976 16.375 1.75 C15.08464844 1.76804687 13.79429688 1.78609375 12.46484375 1.8046875 C9.30910302 1.85143921 6.15495899 1.91695795 3 2 Z " fill="#EF7D3A" transform="translate(4,3)"/>
<path d="M0 0 C4.12763792 2.90050232 6.10973668 5.32543452 8 10 C8.24658817 12.68648533 8.35318675 15.12949108 8.29296875 17.8046875 C8.28994751 18.44736572 8.28692627 19.09004395 8.28381348 19.75219727 C8.26825307 22.1266309 8.22637001 24.50083355 8.1875 26.875 C8.125625 32.19625 8.06375 37.5175 8 43 C-7.84 43 -23.68 43 -40 43 C-40 42.67 -40 42.34 -40 42 C-24.49 41.67 -8.98 41.34 7 41 C6.67 31.76 6.34 22.52 6 13 C5.34 14.65 4.68 16.3 4 18 C3.34 17.67 2.68 17.34 2 17 C1.93080969 14.50914896 1.90408898 12.35167374 2.5625 9.9375 C3.08042477 7.64383315 2.7116378 6.21398425 2 4 C1.34 4 0.68 4 0 4 C0 2.68 0 1.36 0 0 Z " fill="#EB722C" transform="translate(45,9)"/>
<path d="M0 0 C1.32 0.66 2.64 1.32 4 2 C4.33 1.67 4.66 1.34 5 1 C5.99 1 6.98 1 8 1 C8.33 1.66 8.66 2.32 9 3 C3.7265625 6.22265625 3.7265625 6.22265625 2 7 C1.34 6.67 0.68 6.34 0 6 C-0.99 6 -1.98 6 -3 6 C-2.42655063 3.13275314 -2.1385485 2.1385485 0 0 Z " fill="#545454" transform="translate(125,218)"/>
<path d="M0 0 C0.99 0.66 1.98 1.32 3 2 C1.02 4.31 -0.96 6.62 -3 9 C-3.66 8.34 -4.32 7.68 -5 7 C-4.875 5.0625 -4.875 5.0625 -4 3 C-1.9375 1.25 -1.9375 1.25 0 0 Z " fill="#636363" transform="translate(151,201)"/>
<path d="M0 0 C1.65 1.32 3.3 2.64 5 4 C4.34 5.32 3.68 6.64 3 8 C2.67 6.68 2.34 5.36 2 4 C1.34 4 0.68 4 0 4 C0 2.68 0 1.36 0 0 Z " fill="#F0854E" transform="translate(45,9)"/>
<path d="" fill="#FFFFFF" transform="translate(0,0)"/>
<path d="" fill="#FFFFFF" transform="translate(0,0)"/>
<path d="" fill="#FFFFFF" transform="translate(0,0)"/>
<path d="" fill="#FFFFFF" transform="translate(0,0)"/>
<path d="" fill="#FFFFFF" transform="translate(0,0)"/>
<path d="" fill="#FFFFFF" transform="translate(0,0)"/>
<path d="" fill="#FFFFFF" transform="translate(0,0)"/>
<path d="" fill="#FFFFFF" transform="translate(0,0)"/>
<path d="" fill="#FFFFFF" transform="translate(0,0)"/>
<path d="" fill="#FFFFFF" transform="translate(0,0)"/>
<path d="" fill="#FFFFFF" transform="translate(0,0)"/>
<path d="" fill="#FFFFFF" transform="translate(0,0)"/>
<path d="" fill="#FFFFFF" transform="translate(0,0)"/>
<path d="" fill="#FFFFFF" transform="translate(0,0)"/>
<path d="" fill="#FFFFFF" transform="translate(0,0)"/>
<path d="" fill="#FFFFFE" transform="translate(0,0)"/>
<path d="" fill="#FFFFFF" transform="translate(0,0)"/>
<path d="" fill="#FFFFFF" transform="translate(0,0)"/>
<path d="" fill="#FFFFFF" transform="translate(0,0)"/>
<path d="" fill="#FFFFFF" transform="translate(0,0)"/>
<path d="" fill="#FFFFFF" transform="translate(0,0)"/>
<path d="" fill="#FFFFFF" transform="translate(0,0)"/>
<path d="" fill="#FFFFFF" transform="translate(0,0)"/>
<path d="" fill="#FFFFFF" transform="translate(0,0)"/>
<path d="" fill="#FFFFFF" transform="translate(0,0)"/>
<path d="" fill="#FFFFFF" transform="translate(0,0)"/>
<path d="" fill="#FFFFFF" transform="translate(0,0)"/>
<path d="" fill="#FFFFFF" transform="translate(0,0)"/>
<path d="" fill="#FFFFFF" transform="translate(0,0)"/>
<path d="" fill="#FFFFFF" transform="translate(0,0)"/>
<path d="" fill="#FFFFFF" transform="translate(0,0)"/>
<path d="" fill="#FFFFFF" transform="translate(0,0)"/>
<path d="" fill="#FFFFFF" transform="translate(0,0)"/>
<path d="" fill="#FFFFFF" transform="translate(0,0)"/>
<path d="" fill="#FFFFFF" transform="translate(0,0)"/>
<path d="" fill="#FFFFFF" transform="translate(0,0)"/>
<path d="" fill="#FFFFFF" transform="translate(0,0)"/>
<path d="" fill="#FFFFFF" transform="translate(0,0)"/>
<path d="" fill="#FFFFFF" transform="translate(0,0)"/>
<path d="" fill="#FFFFFF" transform="translate(0,0)"/>
<path d="" fill="#FFFFFF" transform="translate(0,0)"/>
</svg>
